<svg xmlns="http://www.w3.org/2000/svg" xmlns:xlink="http://www.w3.org/1999/xlink" width="1920" zoomAndPan="magnify" viewBox="0 0 1440 374.999991" height="500" preserveAspectRatio="xMidYMid meet" version="1.0"><defs><g/></defs><path fill="#ffffff" d="M 687.515625 68.03125 C 688.398438 69.421875 688.484375 71.175781 687.730469 72.644531 C 685.867188 76.28125 685.03125 79.753906 685.214844 83.128906 C 692.40625 76.882812 701.402344 73.65625 712.058594 73.523438 C 713.542969 73.433594 714.949219 74.195312 715.839844 75.386719 C 716.726562 76.574219 716.996094 78.117188 716.558594 79.539062 C 715.308594 83.605469 715.179688 87.113281 716.195312 90.488281 C 723.75 86.433594 729.328125 80.296875 733.175781 71.835938 C 733.808594 70.445312 735.078125 69.453125 736.578125 69.183594 C 738.089844 68.914062 739.617188 69.394531 740.695312 70.472656 C 746.90625 76.691406 750.886719 83.238281 752.746094 90.328125 C 757.789062 87.851562 761.507812 84.175781 764.03125 79.191406 C 765.15625 76.976562 767.828125 76.035156 770.097656 77.058594 C 775.933594 79.703125 780.554688 83.144531 784.289062 87.527344 C 784.292969 87.515625 784.292969 87.507812 784.296875 87.5 C 789.40625 68.820312 788.558594 49.769531 781.898438 33.839844 C 775.410156 18.308594 764.15625 7.652344 750.207031 3.835938 C 736.265625 0.0273438 721.144531 3.457031 707.652344 13.515625 C 693.808594 23.835938 683.375 39.808594 678.265625 58.480469 C 677.558594 61.0625 676.996094 63.6875 676.515625 66.308594 C 678.800781 66.140625 681.078125 65.953125 683.441406 65.875 C 685.074219 65.796875 686.632812 66.640625 687.515625 68.03125 Z M 687.515625 68.03125 " fill-opacity="1" fill-rule="nonzero"/><path fill="#ffffff" d="M 546.945312 79.304688 C 546.175781 76.289062 544.507812 73.011719 541.910156 69.425781 C 540.71875 67.785156 540.730469 65.566406 541.933594 63.941406 C 543.132812 62.304688 545.257812 61.636719 547.167969 62.296875 C 557.523438 65.804688 569.707031 70.929688 577.03125 80.191406 C 584.496094 72.164062 594.410156 66.992188 606.59375 64.773438 C 607.953125 64.53125 609.359375 64.898438 610.421875 65.792969 C 611.480469 66.683594 612.085938 68.003906 612.074219 69.382812 C 612.015625 76.449219 613.488281 82.074219 616.566406 86.460938 C 621.195312 83 626.257812 80.003906 631.675781 77.40625 C 631.75 71.300781 631.175781 65.113281 629.863281 58.972656 C 622.363281 23.816406 594.332031 -0.105469 567.339844 5.65625 C 541.992188 11.066406 526.457031 40.59375 531.003906 73.632812 C 536.625 74.789062 541.953125 76.660156 546.945312 79.304688 Z M 546.945312 79.304688 " fill-opacity="1" fill-rule="nonzero"/><path fill="#ffffff" d="M 794.164062 86.058594 C 807.285156 77.695312 823.882812 71.167969 844.558594 66.296875 C 845.949219 65.96875 847.398438 66.296875 848.507812 67.175781 C 849.625 68.058594 850.269531 69.402344 850.269531 70.820312 L 850.269531 90.164062 C 856.476562 88.175781 863.066406 86.628906 869.941406 85.425781 C 871.433594 54.15625 856.476562 28.222656 832.714844 21.722656 C 819.089844 18 803.976562 21.453125 790.761719 31.0625 C 797.464844 47.609375 798.613281 66.945312 794.164062 86.058594 Z M 794.164062 86.058594 " fill-opacity="1" fill-rule="nonzero"/><path fill="#ffffff" d="M 965.628906 222.113281 C 965.015625 220.972656 964.910156 219.628906 965.328125 218.402344 C 965.746094 217.179688 966.664062 216.1875 967.847656 215.660156 C 978.582031 210.914062 989.675781 209.152344 1000.957031 210.445312 C 991.253906 191.890625 978.226562 177.113281 962.160156 166.441406 C 960.890625 165.59375 960.113281 164.179688 960.082031 162.65625 C 960.054688 161.128906 960.777344 159.679688 962.019531 158.792969 C 969.257812 153.601562 978.15625 150.730469 989.019531 150.121094 C 972.265625 134.390625 958.488281 125.402344 946.164062 122.0625 C 944.457031 121.597656 943.160156 120.214844 942.816406 118.480469 C 942.472656 116.746094 943.140625 114.96875 944.542969 113.890625 L 957.886719 103.628906 C 938.308594 102.867188 919.65625 106.035156 902.371094 113.058594 C 900.332031 113.902344 897.984375 113.175781 896.757812 111.335938 C 895.53125 109.5 895.761719 107.058594 897.316406 105.488281 L 910.613281 92 C 886.320312 91.304688 865.085938 94.328125 847.277344 101.042969 C 845.851562 101.585938 844.246094 101.386719 842.992188 100.519531 C 841.734375 99.648438 840.988281 98.222656 840.988281 96.699219 L 840.988281 76.761719 C 818.121094 82.726562 801.003906 90.875 788.773438 101.59375 C 788.722656 101.640625 788.652344 101.644531 788.601562 101.683594 C 788.109375 102.082031 787.566406 102.390625 786.960938 102.558594 C 786.886719 102.578125 786.8125 102.578125 786.738281 102.589844 C 786.398438 102.671875 786.0625 102.746094 785.710938 102.746094 C 785.523438 102.746094 785.339844 102.660156 785.152344 102.644531 C 785.03125 102.628906 784.914062 102.679688 784.796875 102.652344 C 784.6875 102.628906 784.609375 102.550781 784.503906 102.515625 C 784.347656 102.476562 784.191406 102.488281 784.039062 102.429688 C 783.773438 102.328125 783.582031 102.136719 783.347656 101.992188 C 783.132812 101.863281 782.917969 101.757812 782.722656 101.59375 C 782.335938 101.261719 782.042969 100.871094 781.789062 100.445312 C 781.71875 100.328125 781.59375 100.253906 781.53125 100.132812 C 778.792969 94.53125 775.140625 90.496094 769.945312 87.429688 C 765.445312 94 758.925781 98.605469 750.519531 101.140625 C 749.179688 101.535156 747.738281 101.324219 746.585938 100.550781 C 745.429688 99.773438 744.679688 98.523438 744.550781 97.140625 C 744.03125 91.753906 741.988281 86.714844 738.347656 81.871094 C 732.90625 90.660156 725.289062 97.078125 715.632812 100.996094 C 713.484375 101.875 711.019531 101.019531 709.855469 99.007812 C 706.988281 94.035156 705.824219 88.84375 706.351562 83.289062 C 698.207031 84.574219 691.742188 88.46875 686.707031 95.089844 C 685.734375 96.367188 684.203125 97.050781 682.574219 96.902344 C 680.976562 96.753906 679.570312 95.792969 678.851562 94.359375 C 675.808594 88.285156 675.097656 81.976562 676.722656 75.539062 C 652.527344 77.34375 633.574219 84.207031 618.9375 96.433594 C 617.109375 97.957031 614.421875 97.859375 612.722656 96.199219 C 607.125 90.769531 603.929688 83.832031 603.039062 75.109375 C 593.277344 77.859375 585.828125 83.03125 580.355469 90.828125 C 579.402344 92.183594 577.769531 92.933594 576.148438 92.789062 C 574.492188 92.644531 573.046875 91.632812 572.339844 90.128906 C 569.734375 84.554688 564.320312 79.847656 555.597656 75.664062 C 557.015625 80.230469 557.117188 84.59375 555.929688 88.832031 C 555.519531 90.296875 554.417969 91.464844 552.980469 91.964844 C 551.546875 92.46875 549.949219 92.230469 548.722656 91.339844 C 539.984375 85.003906 530.128906 81.761719 518.863281 81.554688 C 527.058594 87.167969 532.625 93.03125 536.035156 99.53125 C 536.851562 101.09375 536.710938 102.992188 535.679688 104.417969 C 534.644531 105.851562 532.910156 106.574219 531.148438 106.273438 C 514.785156 103.527344 498.964844 105.460938 483.101562 112.171875 C 490.828125 114.445312 496.917969 117.746094 501.539062 122.148438 C 502.761719 123.308594 503.253906 125.046875 502.832031 126.683594 C 502.410156 128.320312 501.128906 129.59375 499.492188 130.015625 C 475.847656 136.109375 456.355469 150.21875 441.441406 172 C 448.511719 172.292969 455.066406 173.941406 461.019531 176.945312 C 462.332031 177.605469 463.246094 178.839844 463.507812 180.289062 C 463.761719 181.734375 463.320312 183.207031 462.320312 184.277344 C 451.765625 195.511719 444.023438 210.492188 439.238281 228.878906 C 451.511719 224.929688 464.261719 224.339844 477.246094 227.132812 C 478.578125 227.421875 479.714844 228.269531 480.355469 229.46875 C 481.003906 230.667969 481.089844 232.085938 480.605469 233.355469 C 476.238281 244.628906 475.46875 256.441406 478.292969 269.253906 C 483.257812 264.160156 489.429688 260.257812 496.734375 257.601562 C 497.917969 257.15625 499.242188 257.242188 500.382812 257.800781 C 501.519531 258.363281 502.378906 259.367188 502.757812 260.582031 C 505.429688 269.101562 505.582031 278.179688 503.207031 288.167969 C 517.507812 284.539062 528.128906 278 534.835938 268.667969 C 535.851562 267.257812 537.574219 266.550781 539.292969 266.785156 C 541.011719 267.046875 542.449219 268.242188 543.007812 269.886719 C 546.230469 279.371094 551.148438 286.773438 557.972656 292.371094 C 561.554688 284.621094 566.382812 278.933594 572.628906 275.074219 C 574.359375 274 576.597656 274.1875 578.132812 275.535156 C 587.617188 283.832031 599.542969 289.445312 613.675781 292.277344 C 612.789062 285.890625 614.167969 279.5 617.800781 273.1875 C 618.515625 271.941406 619.769531 271.101562 621.191406 270.90625 C 622.621094 270.683594 624.042969 271.179688 625.074219 272.179688 C 636.121094 282.960938 650.632812 291.046875 668.285156 296.257812 C 666.957031 288.945312 667.902344 281.847656 671.113281 274.761719 C 671.890625 273.058594 673.570312 272.035156 675.347656 272.035156 C 675.882812 272.035156 676.425781 272.128906 676.957031 272.324219 C 689.40625 276.921875 699.640625 285.839844 707.414062 298.875 C 716.464844 293.210938 722.429688 285.285156 725.589844 274.757812 C 726.300781 272.382812 728.761719 270.976562 731.152344 271.578125 C 744.359375 274.828125 755.976562 282.617188 766.519531 295.332031 C 770.449219 289.421875 771.742188 283.277344 770.472656 276.679688 C 770.050781 274.46875 771.257812 272.28125 773.351562 271.46875 C 775.453125 270.660156 777.816406 271.445312 778.992188 273.355469 C 784.289062 281.929688 793.601562 289.402344 807.378906 296.109375 C 809.175781 290.253906 813.101562 284.792969 819.121094 279.796875 C 820.132812 278.960938 821.4375 278.585938 822.742188 278.769531 C 824.039062 278.953125 825.199219 279.675781 825.9375 280.757812 C 828.804688 284.972656 833.054688 288.433594 838.59375 291.089844 C 841.886719 287.054688 843.628906 282.421875 843.921875 277.019531 C 844.027344 274.964844 845.484375 273.21875 847.492188 272.746094 C 849.507812 272.253906 851.578125 273.171875 852.597656 274.964844 C 857.910156 284.253906 865.871094 291.707031 876.292969 297.140625 C 878.554688 294.003906 879.605469 289.90625 879.5 284.714844 C 879.457031 282.730469 880.683594 280.9375 882.550781 280.253906 C 884.410156 279.574219 886.511719 280.15625 887.761719 281.703125 C 891.90625 286.835938 897.320312 291.175781 903.90625 294.652344 C 903.804688 292.199219 903.367188 289.5625 902.597656 286.71875 C 902.109375 284.910156 902.75 282.980469 904.230469 281.832031 C 905.714844 280.683594 907.738281 280.535156 909.367188 281.453125 C 919.324219 287.066406 930.773438 291.152344 933.359375 290.074219 C 934.292969 288.960938 932.164062 281.824219 927.917969 275.433594 C 927 274.046875 926.886719 272.277344 927.625 270.792969 C 928.367188 269.304688 929.839844 268.324219 931.5 268.21875 C 944.359375 267.414062 956.21875 269.320312 966.890625 273.882812 C 965.628906 268.886719 962.601562 263.742188 957.738281 258.316406 C 956.378906 256.800781 956.167969 254.582031 957.207031 252.832031 C 958.25 251.085938 960.304688 250.214844 962.285156 250.691406 C 972.757812 253.210938 983.292969 252.640625 994.242188 248.964844 C 981.132812 242.113281 971.535156 233.109375 965.628906 222.113281 Z M 501.609375 211.839844 C 501.339844 211.886719 501.074219 211.910156 500.808594 211.910156 C 498.585938 211.910156 496.625 210.316406 496.234375 208.054688 C 495.796875 205.527344 497.496094 203.121094 500.019531 202.683594 L 523.414062 198.625 C 525.933594 198.1875 528.351562 199.882812 528.789062 202.410156 C 529.222656 204.9375 527.527344 207.34375 525.003906 207.78125 Z M 542.5 219.554688 L 527.527344 234.839844 C 526.617188 235.765625 525.414062 236.234375 524.207031 236.234375 C 523.039062 236.234375 521.863281 235.792969 520.957031 234.90625 C 519.117188 233.109375 519.089844 230.164062 520.886719 228.332031 L 535.859375 213.046875 C 537.65625 211.222656 540.601562 211.1875 542.429688 212.984375 C 544.265625 214.777344 544.296875 217.722656 542.5 219.554688 Z M 529.179688 168.308594 C 528.328125 169.222656 527.113281 169.796875 525.769531 169.796875 C 523.699219 169.796875 521.851562 168.410156 521.28125 166.417969 C 520.179688 162.574219 520.179688 162.574219 550.238281 143.796875 C 552.421875 142.4375 555.289062 143.101562 556.644531 145.277344 C 558 147.453125 557.339844 150.320312 555.167969 151.683594 C 545.660156 157.621094 531.792969 166.40625 529.179688 168.308594 Z M 574.640625 226.382812 L 563.414062 244.632812 C 562.535156 246.058594 561.007812 246.847656 559.449219 246.847656 C 558.617188 246.847656 557.773438 246.621094 557.015625 246.15625 C 554.828125 244.816406 554.148438 241.953125 555.492188 239.761719 L 566.722656 221.511719 C 568.070312 219.328125 570.929688 218.640625 573.113281 219.992188 C 575.308594 221.332031 575.984375 224.195312 574.640625 226.382812 Z M 583.839844 162.550781 C 563.820312 178.457031 560.386719 181.1875 558.414062 181.1875 C 558.007812 181.1875 557.664062 181.074219 557.242188 180.929688 L 558.734375 176.527344 L 555.953125 172.804688 C 556.945312 172.046875 578.054688 155.269531 578.054688 155.269531 C 580.058594 153.667969 582.992188 154 584.585938 156.019531 C 586.183594 158.03125 585.855469 160.957031 583.839844 162.550781 Z M 609.726562 159.964844 L 601.101562 197.082031 C 600.601562 199.230469 598.6875 200.675781 596.578125 200.675781 C 596.230469 200.675781 595.875 200.636719 595.519531 200.554688 C 593.015625 199.972656 591.460938 197.476562 592.039062 194.976562 L 600.667969 157.859375 C 601.25 155.359375 603.75 153.8125 606.25 154.382812 C 608.75 154.964844 610.308594 157.464844 609.726562 159.964844 Z M 632.089844 225.648438 L 624.917969 243.898438 C 624.199219 245.730469 622.445312 246.847656 620.589844 246.847656 C 620.023438 246.847656 619.453125 246.742188 618.894531 246.523438 C 616.503906 245.585938 615.328125 242.890625 616.269531 240.496094 L 623.441406 222.246094 C 624.378906 219.863281 627.074219 218.691406 629.464844 219.625 C 631.851562 220.558594 633.027344 223.257812 632.089844 225.648438 Z M 658.910156 250.976562 C 658.71875 253.410156 656.683594 255.265625 654.28125 255.265625 C 654.160156 255.265625 654.039062 255.257812 653.914062 255.25 C 651.351562 255.050781 649.441406 252.8125 649.640625 250.253906 C 650.339844 241.328125 651.460938 226.734375 651.5 225.558594 C 651.59375 223.054688 653.652344 221.046875 656.148438 221.046875 C 656.175781 221.046875 656.207031 221.046875 656.238281 221.046875 C 658.769531 221.09375 660.796875 223.125 660.796875 225.660156 C 660.796875 226.585938 659.769531 239.9375 658.910156 250.976562 Z M 828.136719 195.828125 C 827.484375 196.136719 826.792969 196.292969 826.113281 196.292969 C 824.390625 196.292969 822.730469 195.324219 821.929688 193.667969 L 809.613281 168.226562 C 808.492188 165.914062 809.457031 163.136719 811.769531 162.015625 C 814.074219 160.914062 816.863281 161.867188 817.972656 164.175781 L 830.292969 189.621094 C 831.414062 191.925781 830.445312 194.703125 828.136719 195.828125 Z M 868.914062 258.5 C 868.480469 258.621094 868.046875 258.679688 867.621094 258.679688 C 865.605469 258.679688 863.75 257.359375 863.160156 255.320312 L 856.730469 233.097656 C 856.015625 230.632812 857.4375 228.054688 859.90625 227.339844 C 862.375 226.628906 864.949219 228.046875 865.660156 230.519531 L 872.089844 252.746094 C 872.800781 255.207031 871.378906 257.789062 868.914062 258.5 Z M 875.109375 187.71875 C 874.21875 187.71875 873.3125 187.460938 872.515625 186.925781 C 846.636719 169.476562 846.636719 169.222656 846.636719 166.199219 C 846.636719 163.628906 848.71875 161.550781 851.285156 161.550781 C 852.742188 161.550781 854.042969 162.222656 854.898438 163.273438 C 856.949219 165.007812 867.898438 172.59375 877.71875 179.21875 C 879.847656 180.65625 880.410156 183.546875 878.972656 185.671875 C 878.074219 187 876.605469 187.71875 875.109375 187.71875 Z M 897.117188 251.828125 C 896.351562 252.308594 895.507812 252.527344 894.671875 252.527344 C 893.113281 252.527344 891.59375 251.746094 890.714844 250.324219 L 878.929688 231.308594 C 877.578125 229.125 878.253906 226.261719 880.433594 224.910156 C 882.617188 223.542969 885.480469 224.230469 886.832031 226.410156 L 898.617188 245.429688 C 899.972656 247.609375 899.300781 250.480469 897.117188 251.828125 Z M 926.101562 239.351562 C 925.195312 240.277344 923.992188 240.742188 922.789062 240.742188 C 921.613281 240.742188 920.4375 240.296875 919.53125 239.410156 L 903.730469 223.875 C 901.898438 222.074219 901.875 219.128906 903.675781 217.300781 C 905.46875 215.464844 908.414062 215.445312 910.246094 217.246094 L 926.046875 232.78125 C 927.878906 234.578125 927.902344 237.519531 926.101562 239.351562 Z M 929.09375 163.570312 C 928.46875 165.5625 926.636719 166.824219 924.660156 166.824219 C 924.195312 166.824219 923.726562 166.757812 923.261719 166.613281 L 890.320312 156.246094 C 887.871094 155.476562 886.511719 152.867188 887.28125 150.417969 C 888.050781 147.96875 890.667969 146.625 893.109375 147.378906 L 926.050781 157.742188 C 928.503906 158.515625 929.867188 161.128906 929.09375 163.570312 Z M 957.683594 148.238281 C 956.996094 150.125 955.214844 151.296875 953.316406 151.296875 C 952.789062 151.296875 952.253906 151.203125 951.726562 151.011719 L 923.074219 140.566406 C 920.664062 139.691406 919.417969 137.019531 920.300781 134.609375 C 921.179688 132.191406 923.847656 130.949219 926.261719 131.832031 L 954.910156 142.277344 C 957.320312 143.160156 958.5625 145.828125 957.683594 148.238281 Z M 957.683594 148.238281 " fill-opacity="1" fill-rule="nonzero"/><path stroke-linecap="butt" transform="matrix(0.831665, 0, 0, 0.831665, 53.311934, 50.709009)" fill="none" stroke-linejoin="miter" d="M 142.039655 138.053625 L 142.039655 291.999242 L 85.512455 291.999242 L 85.512455 43.937128 L 142.039655 43.937128 L 240.632298 197.882746 L 241.224107 197.882746 L 241.224107 43.937128 L 297.821761 43.937128 L 297.821761 291.999242 L 241.224107 291.999242 L 142.626768 138.053625 Z M 489.967272 222.259661 L 378.087097 222.259661 C 378.087097 233.071926 381.586288 241.098929 388.58467 246.335974 C 395.630021 251.526049 403.267182 254.118738 411.486758 254.118738 C 420.100874 254.118738 426.906683 252.967998 431.894792 250.666516 C 436.887597 248.369732 442.613119 243.790254 449.076054 236.942172 L 487.543671 256.246434 C 471.489665 283.065737 444.815965 296.480086 407.522574 296.480086 C 384.277612 296.480086 364.334572 288.523536 347.693453 272.61983 C 331.052333 256.664458 322.729425 237.477619 322.729425 215.064009 C 322.729425 192.598733 331.052333 173.34144 347.693453 157.287433 C 364.334572 141.233427 384.277612 133.206423 407.522574 133.206423 C 431.993426 133.206423 451.889498 140.279956 467.210788 154.422324 C 482.57435 168.569389 490.25848 188.756668 490.25848 214.988858 C 490.25848 218.610169 490.164542 221.03377 489.967272 222.259661 Z M 379.55253 192.744337 L 438.212123 192.744337 C 436.986232 184.717333 433.829915 178.550303 428.738474 174.243245 C 423.651731 169.936187 417.090161 167.785006 409.067854 167.785006 C 400.256468 167.785006 393.234602 170.109972 387.997558 174.759904 C 382.807482 179.35817 379.994039 185.356112 379.55253 192.744337 Z M 582.237886 133.206423 C 591.049272 133.206423 599.762023 134.21156 608.371442 136.217137 C 617.037224 138.222713 623.471978 140.232987 627.680401 142.238563 L 633.993035 145.249277 L 616.520565 180.119068 C 604.482408 173.707798 593.054849 170.499815 582.237886 170.499815 C 576.21646 170.499815 571.961068 171.162078 569.462316 172.481907 C 566.968262 173.754767 565.718887 176.201852 565.718887 179.823163 C 565.718887 180.654514 565.817521 181.462381 566.014791 182.246764 C 566.212061 183.031146 566.601904 183.787347 567.189016 184.52476 C 567.823098 185.210508 568.386726 185.797621 568.875204 186.286098 C 569.368378 186.774576 570.19973 187.338204 571.373955 187.972286 C 572.595149 188.559398 573.553317 189.000907 574.234368 189.296812 C 574.971781 189.588019 576.122522 190.053013 577.68659 190.691791 C 579.302323 191.278904 580.500033 191.715715 581.284415 192.01162 C 582.115767 192.302828 583.487262 192.767821 585.394204 193.4066 C 587.305842 193.993712 588.771275 194.383555 589.799896 194.580825 C 596.013896 196.393829 601.424726 198.399405 606.022992 200.602252 C 610.625954 202.805098 615.468459 205.811114 620.559899 209.629695 C 625.698309 213.448275 629.662493 218.267295 632.452452 224.091452 C 635.28938 229.86864 636.712541 236.477179 636.712541 243.912373 C 636.712541 278.955949 612.335626 296.480086 563.591191 296.480086 C 552.581655 296.480086 542.107567 294.789201 532.168925 291.41213 C 522.23498 287.988089 515.067509 284.587533 510.661816 281.210461 L 504.053277 275.776147 L 525.710686 239.361076 C 527.32642 240.784237 529.430632 242.44694 532.023321 244.353882 C 534.61601 246.26552 539.317608 248.881694 546.11872 252.211797 C 552.971498 255.490233 558.89429 257.129452 563.887095 257.129452 C 574.948296 257.129452 580.476549 253.409506 580.476549 245.969615 C 580.476549 242.592544 579.058085 239.948189 576.21646 238.041247 C 573.431197 236.134305 568.659146 233.978428 561.905003 231.583009 C 555.197829 229.182892 549.960785 226.980046 546.19387 224.974469 C 536.551133 219.934695 528.913973 214.256142 523.287086 207.943507 C 517.707168 201.626176 514.917208 193.260996 514.917208 182.833876 C 514.917208 167.221378 520.96212 155.061102 533.051942 146.348351 C 545.188734 137.588632 561.585614 133.206423 582.237886 133.206423 Z M 672.188232 137.75772 L 672.188232 80.277049 L 725.408814 80.277049 L 725.408814 137.75772 L 757.859701 137.75772 L 757.859701 178.35773 L 725.408814 178.35773 L 725.408814 227.32292 C 725.408814 241.563923 729.401179 248.684424 737.376517 248.684424 C 739.382093 248.684424 741.486305 248.294581 743.689151 247.510199 C 745.943664 246.678847 747.653335 245.870981 748.827561 245.091295 L 750.664049 243.912373 L 763.881127 286.860833 C 752.425387 293.272103 739.382093 296.480086 724.751248 296.480086 C 714.765637 296.480086 706.151521 294.742232 698.9089 291.266526 C 691.713248 287.74385 686.255449 283.018768 682.535504 277.095976 C 678.820256 271.173185 676.152416 264.959185 674.536682 258.449281 C 672.967917 251.939376 672.188232 244.99266 672.188232 237.599738 L 672.188232 178.35773 L 649.94371 178.35773 L 649.94371 137.75772 Z M 925.384058 43.937128 L 925.384058 93.564581 L 838.463214 93.564581 L 838.463214 142.825676 L 918.700368 142.825676 L 918.700368 192.453129 L 838.463214 192.453129 L 838.463214 291.999242 L 781.931317 291.999242 L 781.931317 43.937128 Z M 1002.643378 137.75772 L 1002.643378 211.099825 C 1002.643378 226.317783 1004.944859 237.15823 1009.543125 243.621165 C 1014.146088 250.032435 1021.952337 253.235721 1032.961872 253.235721 C 1044.023073 253.235721 1051.857504 250.032435 1056.455769 243.621165 C 1061.054035 237.15823 1063.355516 226.317783 1063.355516 211.099825 L 1063.355516 137.75772 L 1116.580795 137.75772 L 1116.580795 224.020998 C 1116.580795 249.713045 1109.901802 268.214137 1096.53912 279.519577 C 1083.228103 290.825017 1062.035687 296.480086 1032.961872 296.480086 C 1003.939723 296.480086 982.747307 290.825017 969.389321 279.519577 C 956.073607 268.214137 949.418099 249.713045 949.418099 224.020998 L 949.418099 137.75772 Z M 1149.689248 291.999242 L 1149.689248 137.75772 L 1202.914527 137.75772 L 1202.914527 153.985512 L 1203.50164 153.985512 C 1217.3528 140.134352 1232.082281 133.206423 1247.694779 133.206423 C 1255.331939 133.206423 1262.889252 134.21156 1270.380809 136.217137 C 1277.914638 138.222713 1285.133774 141.332062 1292.038218 145.540485 C 1298.984934 149.748908 1304.616518 155.718668 1308.923576 163.454464 C 1313.225937 171.185562 1315.381815 180.166037 1315.381815 190.395886 L 1315.381815 291.999242 L 1262.156536 291.999242 L 1262.156536 204.78719 C 1262.156536 196.760187 1259.587331 189.761805 1254.448922 183.787347 C 1249.357481 177.770617 1242.701973 174.759904 1234.482397 174.759904 C 1226.455394 174.759904 1219.184591 177.869252 1212.674687 184.083252 C 1206.169479 190.297251 1202.914527 197.196999 1202.914527 204.78719 L 1202.914527 291.999242 Z M 1358.950266 272.911038 C 1344.511993 257.152936 1337.292856 237.843977 1337.292856 214.988858 C 1337.292856 192.13374 1344.511993 172.801296 1358.950266 156.991528 C 1373.388538 141.134792 1391.739329 133.206423 1414.007336 133.206423 C 1434.415369 133.206423 1451.253758 139.617693 1464.517806 152.440232 L 1464.517806 33.364405 L 1517.743085 33.364405 L 1517.743085 291.999242 L 1465.104918 291.999242 L 1465.104918 274.526772 L 1464.517806 274.526772 C 1451.253758 289.162314 1434.415369 296.480086 1414.007336 296.480086 C 1391.739329 296.480086 1373.388538 288.622171 1358.950266 272.911038 Z M 1404.172026 188.855303 C 1397.272278 195.656415 1393.820056 204.39265 1393.820056 215.064009 C 1393.820056 225.683701 1397.121978 234.344786 1403.730517 241.05196 C 1410.386025 247.754438 1419.122261 251.108025 1429.939223 251.108025 C 1440.361646 251.108025 1448.928792 247.707469 1455.635967 240.906357 C 1462.338444 234.053578 1465.692031 225.415978 1465.692031 214.988858 C 1465.692031 204.369166 1462.239809 195.656415 1455.340062 188.855303 C 1448.440315 182.049494 1439.971803 178.648938 1429.939223 178.648938 C 1419.709373 178.648938 1411.118742 182.049494 1404.172026 188.855303 Z M 1404.172026 188.855303 " stroke="#ffffff" stroke-width="52.247318" stroke-opacity="1" stroke-miterlimit="4"/><g fill="#1e8561" fill-opacity="1"><g transform="translate(109.410367, 293.555318)"><g><path d="M 62.015625 -128.046875 L 62.015625 0 L 15 0 L 15 -206.3125 L 62.015625 -206.3125 L 144.046875 -78.28125 L 144.546875 -78.28125 L 144.546875 -206.3125 L 191.5625 -206.3125 L 191.5625 0 L 144.546875 0 L 62.515625 -128.046875 Z M 62.015625 -128.046875 "/></g></g></g><g fill="#1e8561" fill-opacity="1"><g transform="translate(315.977583, 293.555318)"><g><path d="M 144.796875 -58.015625 L 51.765625 -58.015625 C 51.765625 -49.015625 54.679688 -42.347656 60.515625 -38.015625 C 66.347656 -33.679688 72.6875 -31.515625 79.53125 -31.515625 C 86.695312 -31.515625 92.363281 -32.472656 96.53125 -34.390625 C 100.695312 -36.304688 105.445312 -40.097656 110.78125 -45.765625 L 142.796875 -29.765625 C 129.453125 -7.421875 107.28125 3.75 76.28125 3.75 C 56.9375 3.75 40.34375 -2.875 26.5 -16.125 C 12.664062 -29.382812 5.75 -45.347656 5.75 -64.015625 C 5.75 -82.691406 12.664062 -98.695312 26.5 -112.03125 C 40.34375 -125.375 56.9375 -132.046875 76.28125 -132.046875 C 96.613281 -132.046875 113.15625 -126.164062 125.90625 -114.40625 C 138.664062 -102.65625 145.046875 -85.859375 145.046875 -64.015625 C 145.046875 -61.015625 144.960938 -59.015625 144.796875 -58.015625 Z M 53.015625 -82.53125 L 101.78125 -82.53125 C 100.78125 -89.195312 98.15625 -94.320312 93.90625 -97.90625 C 89.65625 -101.488281 84.195312 -103.28125 77.53125 -103.28125 C 70.1875 -103.28125 64.347656 -101.363281 60.015625 -97.53125 C 55.679688 -93.695312 53.347656 -88.695312 53.015625 -82.53125 Z M 53.015625 -82.53125 "/></g></g></g><g fill="#1e8561" fill-opacity="1"><g transform="translate(466.776666, 293.555318)"><g><path d="M 70.765625 -132.046875 C 78.109375 -132.046875 85.363281 -131.210938 92.53125 -129.546875 C 99.695312 -127.878906 105.03125 -126.207031 108.53125 -124.53125 L 113.78125 -122.03125 L 99.28125 -93.03125 C 89.28125 -98.363281 79.773438 -101.03125 70.765625 -101.03125 C 65.765625 -101.03125 62.222656 -100.488281 60.140625 -99.40625 C 58.054688 -98.320312 57.015625 -96.28125 57.015625 -93.28125 C 57.015625 -92.613281 57.097656 -91.945312 57.265625 -91.28125 C 57.429688 -90.613281 57.765625 -89.988281 58.265625 -89.40625 C 58.765625 -88.820312 59.222656 -88.320312 59.640625 -87.90625 C 60.054688 -87.488281 60.765625 -87.03125 61.765625 -86.53125 C 62.765625 -86.03125 63.554688 -85.65625 64.140625 -85.40625 C 64.722656 -85.15625 65.679688 -84.78125 67.015625 -84.28125 C 68.347656 -83.78125 69.347656 -83.40625 70.015625 -83.15625 C 70.679688 -82.90625 71.804688 -82.53125 73.390625 -82.03125 C 74.984375 -81.53125 76.195312 -81.195312 77.03125 -81.03125 C 82.195312 -79.53125 86.695312 -77.859375 90.53125 -76.015625 C 94.363281 -74.179688 98.40625 -71.679688 102.65625 -68.515625 C 106.90625 -65.347656 110.195312 -61.347656 112.53125 -56.515625 C 114.863281 -51.679688 116.03125 -46.179688 116.03125 -40.015625 C 116.03125 -10.835938 95.773438 3.75 55.265625 3.75 C 46.097656 3.75 37.382812 2.332031 29.125 -0.5 C 20.875 -3.332031 14.914062 -6.164062 11.25 -9 L 5.75 -13.5 L 23.75 -43.765625 C 25.09375 -42.597656 26.847656 -41.222656 29.015625 -39.640625 C 31.179688 -38.054688 35.097656 -35.890625 40.765625 -33.140625 C 46.429688 -30.390625 51.347656 -29.015625 55.515625 -29.015625 C 64.679688 -29.015625 69.265625 -32.097656 69.265625 -38.265625 C 69.265625 -41.097656 68.097656 -43.304688 65.765625 -44.890625 C 63.429688 -46.472656 59.472656 -48.265625 53.890625 -50.265625 C 48.304688 -52.265625 43.929688 -54.097656 40.765625 -55.765625 C 32.765625 -59.929688 26.425781 -64.640625 21.75 -69.890625 C 17.082031 -75.148438 14.75 -82.113281 14.75 -90.78125 C 14.75 -103.78125 19.789062 -113.90625 29.875 -121.15625 C 39.96875 -128.414062 53.597656 -132.046875 70.765625 -132.046875 Z M 70.765625 -132.046875 "/></g></g></g><g fill="#1e8561" fill-opacity="1"><g transform="translate(589.816705, 293.555318)"><g><path d="M 22.5 -128.296875 L 22.5 -176.0625 L 66.765625 -176.0625 L 66.765625 -128.296875 L 93.78125 -128.296875 L 93.78125 -94.53125 L 66.765625 -94.53125 L 66.765625 -53.765625 C 66.765625 -41.929688 70.101562 -36.015625 76.78125 -36.015625 C 78.445312 -36.015625 80.195312 -36.347656 82.03125 -37.015625 C 83.863281 -37.679688 85.28125 -38.347656 86.28125 -39.015625 L 87.78125 -40.015625 L 98.78125 -4.25 C 89.28125 1.082031 78.441406 3.75 66.265625 3.75 C 57.929688 3.75 50.765625 2.289062 44.765625 -0.625 C 38.765625 -3.539062 34.222656 -7.457031 31.140625 -12.375 C 28.054688 -17.289062 25.84375 -22.457031 24.5 -27.875 C 23.164062 -33.300781 22.5 -39.097656 22.5 -45.265625 L 22.5 -94.53125 L 4 -94.53125 L 4 -128.296875 Z M 22.5 -128.296875 "/></g></g></g><g fill="#1e8561" fill-opacity="1"><g transform="translate(688.598854, 293.555318)"><g><path d="M 134.296875 -206.3125 L 134.296875 -165.046875 L 62.015625 -165.046875 L 62.015625 -124.03125 L 128.796875 -124.03125 L 128.796875 -82.78125 L 62.015625 -82.78125 L 62.015625 0 L 15 0 L 15 -206.3125 Z M 134.296875 -206.3125 "/></g></g></g><g fill="#1e8561" fill-opacity="1"><g transform="translate(830.394968, 293.555318)"><g><path d="M 56.765625 -128.296875 L 56.765625 -67.265625 C 56.765625 -54.597656 58.679688 -45.597656 62.515625 -40.265625 C 66.347656 -34.929688 72.847656 -32.265625 82.015625 -32.265625 C 91.191406 -32.265625 97.695312 -34.929688 101.53125 -40.265625 C 105.363281 -45.597656 107.28125 -54.597656 107.28125 -67.265625 L 107.28125 -128.296875 L 151.546875 -128.296875 L 151.546875 -56.515625 C 151.546875 -35.171875 146 -19.789062 134.90625 -10.375 C 123.820312 -0.957031 106.191406 3.75 82.015625 3.75 C 57.847656 3.75 40.21875 -0.957031 29.125 -10.375 C 18.039062 -19.789062 12.5 -35.171875 12.5 -56.515625 L 12.5 -128.296875 Z M 56.765625 -128.296875 "/></g></g></g><g fill="#1e8561" fill-opacity="1"><g transform="translate(994.448386, 293.555318)"><g><path d="M 15 0 L 15 -128.296875 L 59.265625 -128.296875 L 59.265625 -114.78125 L 59.765625 -114.78125 C 71.273438 -126.289062 83.53125 -132.046875 96.53125 -132.046875 C 102.863281 -132.046875 109.15625 -131.210938 115.40625 -129.546875 C 121.65625 -127.878906 127.65625 -125.289062 133.40625 -121.78125 C 139.164062 -118.28125 143.835938 -113.320312 147.421875 -106.90625 C 151.003906 -100.488281 152.796875 -93.03125 152.796875 -84.53125 L 152.796875 0 L 108.53125 0 L 108.53125 -72.515625 C 108.53125 -79.191406 106.40625 -85.03125 102.15625 -90.03125 C 97.90625 -95.03125 92.363281 -97.53125 85.53125 -97.53125 C 78.863281 -97.53125 72.816406 -94.945312 67.390625 -89.78125 C 61.972656 -84.613281 59.265625 -78.859375 59.265625 -72.515625 L 59.265625 0 Z M 15 0 "/></g></g></g><g fill="#1e8561" fill-opacity="1"><g transform="translate(1159.752147, 293.555318)"><g><path d="M 23.75 -15.875 C 11.75 -28.96875 5.75 -45.015625 5.75 -64.015625 C 5.75 -83.023438 11.75 -99.113281 23.75 -112.28125 C 35.757812 -125.457031 51.015625 -132.046875 69.515625 -132.046875 C 86.523438 -132.046875 100.53125 -126.707031 111.53125 -116.03125 L 111.53125 -215.0625 L 155.796875 -215.0625 L 155.796875 0 L 112.03125 0 L 112.03125 -14.5 L 111.53125 -14.5 C 100.53125 -2.332031 86.523438 3.75 69.515625 3.75 C 51.015625 3.75 35.757812 -2.789062 23.75 -15.875 Z M 61.390625 -85.78125 C 55.640625 -80.113281 52.765625 -72.859375 52.765625 -64.015625 C 52.765625 -55.179688 55.515625 -47.972656 61.015625 -42.390625 C 66.515625 -36.804688 73.769531 -34.015625 82.78125 -34.015625 C 91.445312 -34.015625 98.570312 -36.847656 104.15625 -42.515625 C 109.738281 -48.179688 112.53125 -55.347656 112.53125 -64.015625 C 112.53125 -72.859375 109.65625 -80.113281 103.90625 -85.78125 C 98.15625 -91.445312 91.113281 -94.28125 82.78125 -94.28125 C 74.269531 -94.28125 67.140625 -91.445312 61.390625 -85.78125 Z M 61.390625 -85.78125 "/></g></g></g></svg>