<svg xmlns="http://www.w3.org/2000/svg" xmlns:xlink="http://www.w3.org/1999/xlink" width="1920" zoomAndPan="magnify" viewBox="0 0 1440 374.999991" height="500" preserveAspectRatio="xMidYMid meet" version="1.0"><defs><g/><clipPath id="6b3c7ec795"><path d="M 1229.597656 27.429688 L 1440 27.429688 L 1440 306.214844 L 1229.597656 306.214844 Z M 1229.597656 27.429688 " clip-rule="nonzero"/></clipPath></defs><path stroke-linecap="butt" transform="matrix(0.776564, 0, 0, 0.776564, 0.00001728, 31.777263)" fill="none" stroke-linejoin="miter" d="M 86.951492 144.52694 L 86.951492 304.999415 L 28.028083 304.999415 L 28.028083 46.41851 L 86.951492 46.41851 L 189.72792 206.896015 L 190.3416 206.896015 L 190.3416 46.41851 L 249.340461 46.41851 L 249.340461 304.999415 L 190.3416 304.999415 L 87.565172 144.52694 Z M 449.63176 232.298372 L 333.007274 232.298372 C 333.007274 243.576012 336.654147 251.941185 343.947893 257.398919 C 351.296971 262.806351 359.2547 265.512583 367.826109 265.512583 C 376.804962 265.512583 383.897501 264.315402 389.098697 261.916011 C 394.304923 259.51662 400.270704 254.748019 407.006101 247.605178 L 447.106614 267.730887 C 430.37124 295.688571 402.569492 309.667412 363.69131 309.667412 C 339.460982 309.667412 318.671291 301.377693 301.322235 284.798253 C 283.97821 268.163482 275.306197 248.168557 275.306197 224.798389 C 275.306197 201.382949 283.97821 181.307541 301.322235 164.577197 C 318.671291 147.841822 339.460982 139.47665 363.69131 139.47665 C 389.1993 139.47665 409.93869 146.845848 425.909479 161.589276 C 441.93057 176.332703 449.9386 197.378934 449.9386 224.722936 C 449.9386 228.500594 449.837996 231.025739 449.63176 232.298372 Z M 334.536446 201.538884 L 395.683189 201.538884 C 394.405526 193.168681 391.115795 186.740125 385.808966 182.253213 C 380.502137 177.761272 373.666136 175.517816 365.300964 175.517816 C 356.115874 175.517816 348.796977 177.942358 343.339243 182.786411 C 337.93181 187.585193 334.994191 193.832664 334.536446 201.538884 Z M 545.813635 139.47665 C 554.998725 139.47665 564.078181 140.517895 573.057034 142.610445 C 582.091219 144.702996 588.796435 146.795547 593.187773 148.888097 L 599.767236 152.026923 L 581.552991 188.37493 C 569.002717 181.689834 557.091276 178.349801 545.813635 178.349801 C 539.541013 178.349801 535.104404 179.038935 532.498776 180.417201 C 529.898178 181.740136 528.595364 184.295462 528.595364 188.068089 C 528.595364 188.933279 528.700998 189.778347 528.902204 190.593235 C 529.108441 191.408122 529.515885 192.202889 530.129566 192.967475 C 530.793548 193.681759 531.377048 194.290409 531.890125 194.803487 C 532.398172 195.311534 533.263361 195.900064 534.490723 196.564046 C 535.763356 197.172697 536.759329 197.635472 537.473614 197.942313 C 538.238199 198.244123 539.44041 198.732049 541.070185 199.396032 C 542.755292 200.004682 544.002774 200.467458 544.822692 200.769268 C 545.687881 201.076108 547.116449 201.564035 549.108396 202.228017 C 551.095313 202.836668 552.624485 203.244111 553.695911 203.450348 C 560.17477 205.336662 565.81359 207.429213 570.612372 209.72297 C 575.406123 212.021758 580.456414 215.160584 585.763243 219.139448 C 591.120374 223.118312 595.250143 228.143452 598.157581 234.214866 C 601.120351 240.23598 602.599221 247.122282 602.599221 254.873774 C 602.599221 291.402866 577.191834 309.667412 526.377059 309.667412 C 514.898212 309.667412 503.982743 307.906853 493.625624 304.385734 C 483.268505 300.814314 475.793672 297.273074 471.201127 293.751955 L 464.314825 288.087984 L 486.890227 250.130323 C 488.575334 251.609193 490.768488 253.344602 493.469689 255.336549 C 496.17592 257.323466 501.075305 260.054848 508.162815 263.520635 C 515.305656 266.941151 521.482704 268.651408 526.683899 268.651408 C 538.213049 268.651408 543.977623 264.773148 543.977623 257.016626 C 543.977623 253.500537 542.498753 250.744004 539.541013 248.752057 C 536.633575 246.76514 531.658737 244.516654 524.6165 242.02169 C 517.629594 239.521696 512.17186 237.222908 508.243297 235.130357 C 498.193018 229.87886 490.230259 223.95835 484.365082 217.378888 C 478.550205 210.794396 475.642767 202.072082 475.642767 191.206915 C 475.642767 174.929286 481.94054 162.253258 494.541115 153.173802 C 507.197022 144.039014 524.284509 139.47665 545.813635 139.47665 Z M 639.575999 144.2201 L 639.575999 84.300718 L 695.058771 84.300718 L 695.058771 144.2201 L 728.881632 144.2201 L 728.881632 186.538918 L 695.058771 186.538918 L 695.058771 237.58005 C 695.058771 252.429111 699.218721 259.848611 707.533592 259.848611 C 709.626142 259.848611 711.819296 259.441168 714.113054 258.62628 C 716.462143 257.756061 718.247853 256.916022 719.470185 256.101135 L 721.381649 254.873774 L 735.159284 299.642284 C 723.222691 306.32738 709.626142 309.667412 694.369638 309.667412 C 683.962216 309.667412 674.983364 307.856551 667.433079 304.234829 C 659.933096 300.562805 654.243974 295.638269 650.365713 289.466251 C 646.492482 283.294233 643.710798 276.815374 642.025691 270.029675 C 640.395916 263.243976 639.575999 255.995501 639.575999 248.294312 L 639.575999 186.538918 L 616.391946 186.538918 L 616.391946 144.2201 Z M 903.509005 46.41851 L 903.509005 98.148775 L 812.900557 98.148775 L 812.900557 149.501778 L 896.54725 149.501778 L 896.54725 201.232044 L 812.900557 201.232044 L 812.900557 304.999415 L 753.977149 304.999415 L 753.977149 46.41851 Z M 984.047052 144.2201 L 984.047052 220.668619 C 984.047052 236.533775 986.446443 247.836566 991.240195 254.566933 C 996.033947 261.252029 1004.172761 264.592061 1015.651609 264.592061 C 1027.180758 264.592061 1035.344723 261.252029 1040.138475 254.566933 C 1044.937257 247.836566 1047.331618 236.533775 1047.331618 220.668619 L 1047.331618 144.2201 L 1102.81439 144.2201 L 1102.81439 234.139414 C 1102.81439 260.920038 1095.852635 280.205708 1081.924095 291.991396 C 1068.045856 303.777084 1045.958381 309.667412 1015.651609 309.667412 C 985.400168 309.667412 963.307662 303.777084 949.379122 291.991396 C 935.505914 280.205708 928.56428 260.920038 928.56428 234.139414 L 928.56428 144.2201 Z M 1137.326384 304.999415 L 1137.326384 144.2201 L 1192.809156 144.2201 L 1192.809156 161.13153 L 1193.417807 161.13153 C 1207.859424 146.694943 1223.211502 139.47665 1239.489131 139.47665 C 1247.44686 139.47665 1255.329136 140.517895 1263.135959 142.610445 C 1270.993084 144.702996 1278.518218 147.942425 1285.711361 152.328733 C 1292.954806 156.720072 1298.819983 162.942392 1303.311925 171.000723 C 1307.798836 179.064086 1310.047322 188.425231 1310.047322 199.089191 L 1310.047322 304.999415 L 1254.56455 304.999415 L 1254.56455 214.089157 C 1254.56455 205.718955 1251.88347 198.425209 1246.526339 192.202889 C 1241.22454 185.925237 1234.282906 182.786411 1225.711497 182.786411 C 1217.346324 182.786411 1209.770889 186.02584 1202.98519 192.504699 C 1196.199491 198.988588 1192.809156 206.181731 1192.809156 214.089157 L 1192.809156 304.999415 Z M 1355.459695 285.105094 C 1340.409427 268.676559 1332.884293 248.55085 1332.884293 224.722936 C 1332.884293 200.900052 1340.409427 180.749192 1355.459695 164.270356 C 1370.509962 147.741219 1389.639698 139.47665 1412.853931 139.47665 C 1434.126519 139.47665 1451.676781 146.156715 1465.504718 159.521876 L 1465.504718 35.397408 L 1520.98246 35.397408 L 1520.98246 304.999415 L 1466.113368 304.999415 L 1466.113368 286.78517 L 1465.504718 286.78517 C 1451.676781 302.041675 1434.126519 309.667412 1412.853931 309.667412 C 1389.639698 309.667412 1370.509962 301.478296 1355.459695 285.105094 Z M 1402.597415 197.479537 C 1395.404272 204.572076 1391.807701 213.676683 1391.807701 224.798389 C 1391.807701 235.869792 1395.253367 244.903977 1402.13967 251.890883 C 1409.076274 258.882819 1418.185911 262.373757 1429.458522 262.373757 C 1440.328718 262.373757 1449.252239 258.827487 1456.244175 251.739978 C 1463.231081 244.597137 1466.727049 235.593133 1466.727049 224.722936 C 1466.727049 213.651533 1463.130478 204.572076 1455.937335 197.479537 C 1448.744192 190.392028 1439.916244 186.845758 1429.458522 186.845758 C 1418.799592 186.845758 1409.84589 190.392028 1402.597415 197.479537 Z M 1402.597415 197.479537 " stroke="#1e8561" stroke-width="76.013077" stroke-opacity="1" stroke-miterlimit="4"/><g fill="#ffffff" fill-opacity="1"><g transform="translate(7.146835, 268.629361)"><g><path d="M 60.375 -124.625 L 60.375 0 L 14.609375 0 L 14.609375 -200.828125 L 60.375 -200.828125 L 140.21875 -76.1875 L 140.703125 -76.1875 L 140.703125 -200.828125 L 186.46875 -200.828125 L 186.46875 0 L 140.703125 0 L 60.859375 -124.625 Z M 60.375 -124.625 "/></g></g></g><g fill="#ffffff" fill-opacity="1"><g transform="translate(208.206496, 268.629361)"><g><path d="M 140.9375 -56.46875 L 50.390625 -56.46875 C 50.390625 -47.707031 53.226562 -41.21875 58.90625 -37 C 64.582031 -32.78125 70.75 -30.671875 77.40625 -30.671875 C 84.382812 -30.671875 89.898438 -31.601562 93.953125 -33.46875 C 98.015625 -35.332031 102.640625 -39.023438 107.828125 -44.546875 L 139 -28.96875 C 126.007812 -7.21875 104.425781 3.65625 74.25 3.65625 C 55.414062 3.65625 39.265625 -2.789062 25.796875 -15.6875 C 12.328125 -28.59375 5.59375 -44.132812 5.59375 -62.3125 C 5.59375 -80.488281 12.328125 -96.066406 25.796875 -109.046875 C 39.265625 -122.035156 55.414062 -128.53125 74.25 -128.53125 C 94.039062 -128.53125 110.144531 -122.804688 122.5625 -111.359375 C 134.976562 -99.921875 141.1875 -83.570312 141.1875 -62.3125 C 141.1875 -59.394531 141.101562 -57.445312 140.9375 -56.46875 Z M 51.609375 -80.328125 L 99.078125 -80.328125 C 98.097656 -86.816406 95.539062 -91.804688 91.40625 -95.296875 C 87.269531 -98.785156 81.953125 -100.53125 75.453125 -100.53125 C 68.316406 -100.53125 62.640625 -98.660156 58.421875 -94.921875 C 54.203125 -91.191406 51.929688 -86.328125 51.609375 -80.328125 Z M 51.609375 -80.328125 "/></g></g></g><g fill="#ffffff" fill-opacity="1"><g transform="translate(354.984936, 268.629361)"><g><path d="M 68.890625 -128.53125 C 76.023438 -128.53125 83.082031 -127.71875 90.0625 -126.09375 C 97.039062 -124.46875 102.234375 -122.84375 105.640625 -121.21875 L 110.75 -118.796875 L 96.640625 -90.546875 C 86.898438 -95.742188 77.648438 -98.34375 68.890625 -98.34375 C 64.015625 -98.34375 60.5625 -97.8125 58.53125 -96.75 C 56.507812 -95.695312 55.5 -93.710938 55.5 -90.796875 C 55.5 -90.148438 55.578125 -89.5 55.734375 -88.84375 C 55.898438 -88.195312 56.226562 -87.585938 56.71875 -87.015625 C 57.207031 -86.453125 57.65625 -85.96875 58.0625 -85.5625 C 58.46875 -85.15625 59.15625 -84.707031 60.125 -84.21875 C 61.09375 -83.738281 61.863281 -83.375 62.4375 -83.125 C 63.007812 -82.882812 63.941406 -82.519531 65.234375 -82.03125 C 66.535156 -81.539062 67.507812 -81.175781 68.15625 -80.9375 C 68.800781 -80.695312 69.894531 -80.332031 71.4375 -79.84375 C 72.976562 -79.351562 74.15625 -79.03125 74.96875 -78.875 C 80 -77.40625 84.378906 -75.78125 88.109375 -74 C 91.847656 -72.21875 95.785156 -69.785156 99.921875 -66.703125 C 104.054688 -63.617188 107.257812 -59.722656 109.53125 -55.015625 C 111.8125 -50.304688 112.953125 -44.953125 112.953125 -38.953125 C 112.953125 -10.546875 93.234375 3.65625 53.796875 3.65625 C 44.867188 3.65625 36.390625 2.273438 28.359375 -0.484375 C 20.328125 -3.242188 14.523438 -6.003906 10.953125 -8.765625 L 5.59375 -13.140625 L 23.125 -42.59375 C 24.425781 -41.457031 26.128906 -40.117188 28.234375 -38.578125 C 30.347656 -37.035156 34.160156 -34.925781 39.671875 -32.25 C 45.191406 -29.570312 49.984375 -28.234375 54.046875 -28.234375 C 62.960938 -28.234375 67.421875 -31.238281 67.421875 -37.25 C 67.421875 -40 66.285156 -42.144531 64.015625 -43.6875 C 61.742188 -45.226562 57.890625 -46.972656 52.453125 -48.921875 C 47.015625 -50.867188 42.753906 -52.65625 39.671875 -54.28125 C 31.890625 -58.34375 25.722656 -62.925781 21.171875 -68.03125 C 16.628906 -73.144531 14.359375 -79.921875 14.359375 -88.359375 C 14.359375 -101.015625 19.265625 -110.875 29.078125 -117.9375 C 38.898438 -125 52.171875 -128.53125 68.890625 -128.53125 Z M 68.890625 -128.53125 "/></g></g></g><g fill="#ffffff" fill-opacity="1"><g transform="translate(474.744449, 268.629361)"><g><path d="M 21.90625 -124.875 L 21.90625 -171.375 L 65 -171.375 L 65 -124.875 L 91.28125 -124.875 L 91.28125 -92.015625 L 65 -92.015625 L 65 -52.328125 C 65 -40.804688 68.242188 -35.046875 74.734375 -35.046875 C 76.359375 -35.046875 78.0625 -35.367188 79.84375 -36.015625 C 81.625 -36.671875 83.003906 -37.320312 83.984375 -37.96875 L 85.4375 -38.953125 L 96.15625 -4.140625 C 86.90625 1.054688 76.351562 3.65625 64.5 3.65625 C 56.382812 3.65625 49.40625 2.234375 43.5625 -0.609375 C 37.726562 -3.453125 33.304688 -7.265625 30.296875 -12.046875 C 27.296875 -16.835938 25.144531 -21.867188 23.84375 -27.140625 C 22.550781 -32.410156 21.90625 -38.050781 21.90625 -44.0625 L 21.90625 -92.015625 L 3.890625 -92.015625 L 3.890625 -124.875 Z M 21.90625 -124.875 "/></g></g></g><g fill="#ffffff" fill-opacity="1"><g transform="translate(570.892811, 268.629361)"><g><path d="M 130.71875 -200.828125 L 130.71875 -160.65625 L 60.375 -160.65625 L 60.375 -120.734375 L 125.359375 -120.734375 L 125.359375 -80.578125 L 60.375 -80.578125 L 60.375 0 L 14.609375 0 L 14.609375 -200.828125 Z M 130.71875 -200.828125 "/></g></g></g><g fill="#ffffff" fill-opacity="1"><g transform="translate(708.908337, 268.629361)"><g><path d="M 55.25 -124.875 L 55.25 -65.484375 C 55.25 -53.148438 57.113281 -44.382812 60.84375 -39.1875 C 64.582031 -34 70.914062 -31.40625 79.84375 -31.40625 C 88.769531 -31.40625 95.097656 -34 98.828125 -39.1875 C 102.554688 -44.382812 104.421875 -53.148438 104.421875 -65.484375 L 104.421875 -124.875 L 147.515625 -124.875 L 147.515625 -55.015625 C 147.515625 -34.242188 142.117188 -19.269531 131.328125 -10.09375 C 120.535156 -0.925781 103.375 3.65625 79.84375 3.65625 C 56.3125 3.65625 39.148438 -0.925781 28.359375 -10.09375 C 17.566406 -19.269531 12.171875 -34.242188 12.171875 -55.015625 L 12.171875 -124.875 Z M 55.25 -124.875 "/></g></g></g><g fill="#ffffff" fill-opacity="1"><g transform="translate(868.5877, 268.629361)"><g><path d="M 14.609375 0 L 14.609375 -124.875 L 57.6875 -124.875 L 57.6875 -111.734375 L 58.171875 -111.734375 C 69.367188 -122.929688 81.296875 -128.53125 93.953125 -128.53125 C 100.117188 -128.53125 106.242188 -127.71875 112.328125 -126.09375 C 118.421875 -124.46875 124.265625 -121.953125 129.859375 -118.546875 C 135.460938 -115.140625 140.007812 -110.3125 143.5 -104.0625 C 146.988281 -97.8125 148.734375 -90.550781 148.734375 -82.28125 L 148.734375 0 L 105.640625 0 L 105.640625 -70.59375 C 105.640625 -77.082031 103.570312 -82.757812 99.4375 -87.625 C 95.300781 -92.5 89.90625 -94.9375 83.25 -94.9375 C 76.757812 -94.9375 70.875 -92.421875 65.59375 -87.390625 C 60.320312 -82.359375 57.6875 -76.757812 57.6875 -70.59375 L 57.6875 0 Z M 14.609375 0 "/></g></g></g><g fill="#ffffff" fill-opacity="1"><g transform="translate(1029.484094, 268.629361)"><g><path d="M 23.125 -15.453125 C 11.4375 -28.191406 5.59375 -43.8125 5.59375 -62.3125 C 5.59375 -80.8125 11.4375 -96.472656 23.125 -109.296875 C 34.8125 -122.117188 49.660156 -128.53125 67.671875 -128.53125 C 84.222656 -128.53125 97.851562 -123.335938 108.5625 -112.953125 L 108.5625 -209.34375 L 151.65625 -209.34375 L 151.65625 0 L 109.046875 0 L 109.046875 -14.125 L 108.5625 -14.125 C 97.851562 -2.269531 84.222656 3.65625 67.671875 3.65625 C 49.660156 3.65625 34.8125 -2.710938 23.125 -15.453125 Z M 59.75 -83.484375 C 54.15625 -77.972656 51.359375 -70.914062 51.359375 -62.3125 C 51.359375 -53.71875 54.035156 -46.703125 59.390625 -41.265625 C 64.742188 -35.828125 71.804688 -33.109375 80.578125 -33.109375 C 89.015625 -33.109375 95.953125 -35.863281 101.390625 -41.375 C 106.828125 -46.894531 109.546875 -53.875 109.546875 -62.3125 C 109.546875 -70.914062 106.742188 -77.972656 101.140625 -83.484375 C 95.546875 -89.003906 88.691406 -91.765625 80.578125 -91.765625 C 72.296875 -91.765625 65.351562 -89.003906 59.75 -83.484375 Z M 59.75 -83.484375 "/></g></g></g><g clip-path="url(#6b3c7ec795)"><path fill="#1e8561" d="M 1431.726562 130.75 C 1426.292969 113.667969 1418.53125 96.785156 1409.324219 81.929688 C 1399.402344 65.925781 1387.878906 52.589844 1376.058594 43.359375 C 1375.777344 43.136719 1375.476562 42.933594 1375.1875 42.722656 C 1372.796875 40.972656 1370.382812 39.246094 1367.875 37.664062 C 1365.484375 36.160156 1363.011719 34.789062 1360.460938 33.574219 C 1358.046875 32.417969 1355.566406 31.390625 1353.027344 30.527344 C 1350.59375 29.699219 1348.105469 29.035156 1345.578125 28.554688 C 1344.328125 28.316406 1343.074219 28.121094 1341.816406 27.953125 C 1340.273438 27.75 1338.742188 27.546875 1337.1875 27.484375 C 1336.21875 27.449219 1335.25 27.441406 1334.28125 27.457031 C 1333.484375 27.457031 1332.683594 27.503906 1331.886719 27.546875 C 1329.300781 27.6875 1326.707031 27.910156 1324.15625 28.359375 C 1321.511719 28.824219 1318.921875 29.558594 1316.386719 30.453125 C 1313.773438 31.382812 1311.207031 32.457031 1308.699219 33.644531 C 1306.027344 34.90625 1303.4375 36.328125 1300.949219 37.925781 C 1298.320312 39.609375 1295.761719 41.445312 1293.304688 43.367188 C 1281.507812 52.597656 1270.113281 65.941406 1260.214844 81.941406 C 1251.023438 96.796875 1243.300781 113.691406 1237.875 130.773438 C 1232.46875 147.8125 1229.609375 164.234375 1229.609375 178.222656 C 1229.609375 199.929688 1232.371094 219.433594 1237.824219 236.105469 C 1242.980469 251.875 1250.582031 265.398438 1260.421875 276.125 C 1278.574219 295.914062 1304.207031 306.546875 1334.550781 306.546875 L 1338.097656 306.546875 C 1367.238281 305.808594 1391.574219 295.148438 1409.148438 276 C 1418.992188 265.269531 1426.648438 251.785156 1431.808594 236.015625 C 1437.265625 219.34375 1440.027344 199.886719 1440.027344 178.179688 C 1440.027344 164.191406 1437.152344 147.789062 1431.726562 130.75 Z M 1335.09375 299.28125 L 1333.921875 299.28125 C 1272.011719 298.984375 1236.523438 254.882812 1236.523438 178.179688 C 1236.523438 150.960938 1248.128906 114.609375 1266.09375 85.570312 C 1286.246094 52.992188 1311.261719 34.308594 1334.730469 34.308594 C 1358.230469 34.308594 1383.289062 52.992188 1403.484375 85.570312 C 1421.488281 114.621094 1433.121094 150.96875 1433.121094 178.179688 C 1433.121094 255.140625 1397.390625 299.28125 1335.09375 299.28125 Z M 1335.09375 299.28125 " fill-opacity="1" fill-rule="nonzero"/></g><path fill="#1e8561" d="M 1286.40625 82.742188 C 1284.84375 81.644531 1282.6875 82.019531 1281.589844 83.585938 C 1279.746094 86.214844 1277.921875 88.980469 1276.175781 91.804688 C 1274.886719 93.886719 1273.613281 96.042969 1272.386719 98.21875 C 1271.449219 99.878906 1272.035156 101.988281 1273.699219 102.929688 C 1274.234375 103.230469 1274.816406 103.375 1275.394531 103.375 C 1276.601562 103.375 1277.773438 102.742188 1278.40625 101.617188 C 1279.589844 99.523438 1280.816406 97.445312 1282.054688 95.441406 C 1283.734375 92.730469 1285.480469 90.078125 1287.25 87.558594 C 1288.347656 85.996094 1287.972656 83.839844 1286.40625 82.742188 Z M 1286.40625 82.742188 " fill-opacity="1" fill-rule="nonzero"/><path fill="#1e8561" d="M 1271.359375 107.390625 C 1269.644531 106.554688 1267.574219 107.269531 1266.738281 108.988281 C 1262.417969 117.878906 1258.722656 127.113281 1255.765625 136.433594 C 1253.570312 143.34375 1251.832031 150.140625 1250.597656 156.632812 C 1250.242188 158.507812 1251.472656 160.316406 1253.347656 160.675781 C 1253.566406 160.714844 1253.78125 160.734375 1253.996094 160.734375 C 1255.625 160.734375 1257.074219 159.582031 1257.390625 157.925781 C 1258.574219 151.703125 1260.246094 145.175781 1262.355469 138.523438 C 1265.214844 129.523438 1268.78125 120.605469 1272.957031 112.011719 C 1273.792969 110.292969 1273.078125 108.222656 1271.359375 107.390625 Z M 1271.359375 107.390625 " fill-opacity="1" fill-rule="nonzero"/></svg>